<?xml version="1.0" standalone="no"?>
<!DOCTYPE svg PUBLIC "-//W3C//DTD SVG 20010904//EN"
 "http://www.w3.org/TR/2001/REC-SVG-20010904/DTD/svg10.dtd">
<svg version="1.0" xmlns="http://www.w3.org/2000/svg"
 width="200.000000pt" height="200.000000pt" viewBox="0 0 200.000000 200.000000"
 preserveAspectRatio="xMidYMid meet">

<g transform="translate(0.000000,200.000000) scale(0.100000,-0.100000)"
fill="#000000" stroke="none">
<path d="M958 1957 c-37 -16 -865 -753 -873 -776 -9 -28 12 -70 37 -76 13 -2
43 -6 68 -7 l45 -3 3 -519 c1 -363 6 -523 13 -533 15 -17 140 -18 157 -1 9 9
12 140 12 530 l0 518 575 0 575 0 0 -511 c0 -333 4 -517 10 -530 9 -16 22 -19
83 -19 44 0 78 5 85 12 9 9 12 140 12 530 l0 518 46 0 c73 0 104 22 104 75 0
28 -40 67 -424 408 -234 207 -437 382 -451 387 -33 12 -43 12 -77 -3z"/>
<path d="M784 997 c-2 -7 -3 -105 -2 -217 l3 -205 215 0 215 0 3 209 c2 161
-1 211 -10 218 -7 4 -45 8 -85 8 l-72 0 -3 -67 -3 -68 -42 -3 -43 -3 0 70 0
71 -85 0 c-60 0 -87 -4 -91 -13z"/>
<path d="M522 468 c-9 -9 -12 -70 -12 -215 0 -190 1 -203 19 -213 12 -6 98
-10 210 -10 159 0 192 3 205 16 13 13 16 46 16 205 0 112 -4 198 -10 210 -9
16 -22 19 -90 19 l-80 0 0 -70 0 -70 -45 0 -45 0 0 70 0 70 -78 0 c-47 0 -83
-5 -90 -12z"/>
<path d="M1050 461 c-6 -12 -10 -98 -10 -210 0 -159 3 -192 16 -205 23 -24
395 -24 418 0 14 13 16 47 16 213 0 140 -3 200 -12 209 -7 7 -43 12 -90 12
l-78 0 0 -71 0 -70 -42 3 -43 3 -3 68 -3 67 -79 0 c-68 0 -81 -3 -90 -19z"/>
</g>
</svg>
